<svg
   xmlns:svg="http://www.w3.org/2000/svg"
   xmlns="http://www.w3.org/2000/svg"
   viewBox="0 354 800 300">
  <rect
     ry="20.952715"
     y="374.58618"
     x="5.7939148"
     height="258.82764"
     width="788.41217"
     style="opacity:1;fill:white;fill-opacity:1;stroke:none;" />
  <g
     style="fill-opacity:1;stroke:none;">
    <path
       id="path4141"
       style="fill:#0672ba;"
       d="m 123.10831,451.09312 c 4.07847,3.39873 8.6101,5.66455 14.27465,5.66455 10.42275,0 17.89995,-9.74302 17.89995,-19.03287 0,-7.02403 -3.62531,-12.91515 -10.19618,-17.67337 -11.32908,-8.6101 -25.15056,-13.14174 -39.42521,-13.14174 -32.174602,0 -53.473282,26.0569 -53.473282,51.43405 0,30.58853 27.189804,43.50368 50.074552,54.15302 18.12654,8.38353 24.24424,13.5949 24.24424,21.29868 0,12.91516 -10.87592,19.48603 -23.33791,19.48603 -7.250614,0 -15.180974,-2.4924 -21.298679,-6.34429 -4.305053,-2.4924 -8.836687,-3.85189 -13.36832,-3.85189 -11.782249,0 -17.673373,5.43796 -17.673373,17.44679 0,7.4772 3.398726,13.36832 10.422758,17.89996 12.461994,8.15694 26.510059,12.46199 41.917614,12.46199 34.89358,0 61.8568,-21.75184 61.8568,-58.45808 0,-27.86955 -19.48602,-40.33154 -46.90241,-53.69986 -14.04806,-6.79745 -27.869547,-10.19618 -27.869547,-21.29868 0,-9.96959 5.891124,-12.91516 15.180977,-12.91516 6.57087,0 12.23541,2.4924 17.67337,6.57087 z" />
    <path
       id="path4143"
       style="fill:#646464;"
       d="m 175.21502,570.72826 c 0,11.55566 5.66454,17.44679 16.99362,17.44679 12.00883,0 17.67338,-5.89113 17.67338,-17.44679 l 0,-63.21629 c 0,-13.36832 8.83668,-20.16578 17.89995,-20.16578 8.15694,0 16.76705,6.57087 16.76705,20.16578 l 0,63.21629 c 0,11.55566 6.1177,17.44679 17.44679,17.44679 11.78225,0 17.67337,-5.89113 17.67337,-17.44679 l 0,-67.06818 c 1.35949,-10.87593 9.51643,-16.31389 17.67337,-16.31389 8.15694,0 16.76705,6.57087 16.76705,20.16578 l 0,63.21629 c 0,11.55566 6.1177,17.44679 17.44679,17.44679 11.78225,0 17.67337,-5.89113 17.67337,-17.44679 l 0,-69.56058 c 0,-31.49486 -18.80628,-44.41001 -38.06573,-44.41001 -14.27464,0 -28.77587,7.02403 -36.02648,18.80628 -6.11771,-13.82149 -17.4468,-19.25945 -29.22904,-19.25945 -13.59491,0 -28.09613,7.25062 -36.02649,16.31388 0,-7.02403 -5.66455,-15.63413 -17.67338,-15.63413 -11.32908,0 -16.99362,8.6101 -16.99362,18.12653 l 0,95.61748 z" />
    <path
       id="path4145"
       style="fill:#0672ba;"
       d="m 369.34951,552.37514 c 0,12.00883 6.1177,17.67337 17.67337,17.67337 11.78225,0 17.67337,-5.66454 17.67337,-17.67337 l 0,-38.29231 c 0,-11.78224 -6.34429,-17.44679 -17.89995,-17.44679 -11.32909,0 -17.44679,5.66455 -17.44679,17.44679 l 0,38.29231 z m -3.17215,-89.49977 c 0,11.32909 9.06327,20.16577 20.16577,20.16577 11.55567,0 20.39236,-8.83668 20.39236,-20.16577 0,-11.32908 -8.83669,-20.16577 -20.39236,-20.16577 -11.1025,0 -20.16577,8.83669 -20.16577,20.16577 z" />
    <path
       id="path4147"
       style="fill:#646464;"
       d="m 421.41018,570.50168 c 0,12.00883 5.66454,17.67337 17.67337,17.67337 11.78225,0 17.44679,-5.66454 17.44679,-17.67337 l 0,-147.95785 c 0,-11.55567 -6.1177,-17.89995 -17.67337,-17.89995 -11.55567,0 -17.44679,6.34428 -17.44679,17.89995 l 0,147.95785 z" />
    <path
       id="path4149"
       style="fill:#646464;"
       d="m 533.95402,454.26527 c -37.83914,0 -58.68466,32.85434 -58.68466,67.29476 0,37.38598 22.20501,69.10742 62.08339,69.10742 20.84551,0 37.61256,-7.70378 48.94164,-21.75185 2.94556,-3.17214 3.85189,-6.34428 3.85189,-10.42275 0,-10.42276 -5.66454,-14.9544 -12.91515,-14.9544 -12.00883,0 -19.25945,14.04807 -36.70624,14.04807 -9.74301,0 -29.90878,-7.02403 -29.90878,-27.41639 l 51.8872,0 c 17.4468,0 28.09614,0 28.09614,-17.44679 0,-35.12016 -20.16578,-58.45807 -56.64543,-58.45807 z m -21.52526,52.34037 c 0,-14.04807 11.55567,-21.52526 21.97842,-21.52526 9.9696,0 19.93919,7.02403 19.93919,21.52526 l -41.91761,0 z" />
    <path
       id="path4151"
       style="fill:#0672ba;"
       d="m 609.65001,552.37514 c 0,12.00883 6.11771,17.67337 17.67338,17.67337 11.78224,0 17.67337,-5.66454 17.67337,-17.67337 l 0,-38.29231 c 0,-11.78224 -6.34429,-17.44679 -17.89996,-17.44679 -11.32908,0 -17.44679,5.66455 -17.44679,17.44679 l 0,38.29231 z m -3.17214,-89.49977 c 0,11.32909 9.06327,20.16577 20.16577,20.16577 11.55567,0 20.39235,-8.83668 20.39235,-20.16577 0,-11.32908 -8.83668,-20.16577 -20.39235,-20.16577 -11.1025,0 -20.16577,8.83669 -20.16577,20.16577 z" />
    <path
       id="path4153"
       style="fill:#0672ba;"
       d="m 716.77007,420.05143 c -3.85189,-3.17214 -7.4772,-4.53163 -11.78225,-4.53163 -9.06327,0 -16.99363,7.25061 -16.99363,16.54046 0,4.07847 1.81266,8.38352 4.9848,12.23541 14.72781,17.44679 21.97843,40.78471 21.97843,63.89604 0,22.43159 -5.66455,49.39481 -23.11134,67.06818 -2.71898,3.85189 -3.85189,8.38352 -3.85189,11.78225 0,9.74301 7.4772,16.31388 16.76705,16.31388 4.53163,0 9.06327,-1.35949 13.14174,-5.66454 22.65817,-22.65817 31.26827,-59.13782 31.26827,-90.63268 0,-31.04169 -9.28985,-62.08338 -32.40118,-87.00737 z" />
  </g>
</svg>
