<svg
   xmlns="http://www.w3.org/2000/svg"
   viewBox="0 354 1200 1180"
   width="1200"
   height="1180">
  <g>
    <rect
       rx="243.73424" ry="243.73424" y="429.24637" x="69.580536"
       height="1061.6423" width="1061.6423"
       style="fill:#dbefff;stroke:none;" />
    <path
       style="fill:#ffffff;fill-opacity:0.24731182;stroke:none;"
       d="m 51.68546,1492.5652 0,-1062.68179 670.26944,0 c 355.1428,236.2955 374.6415,788.40799 0,1062.68179 z"/>
    <path
       style="fill:#ffffff;fill-opacity:0.34946235;stroke:none;"
       d="m 68.10408,1490.5652 0,-1062.6818 390.26944,0 c 355.14278,236.2955 374.64148,788.408 0,1062.6818 z"/>
    <path
       style="fill:#ffffff;fill-opacity:0.40860219;stroke:none;"
       d="m 69.92737,1489.6905 0,-1062.68178 130.26944,0 c 355.14278,236.2955 374.64148,788.40798 0,1062.68178 z"/>
    <path
       style="fill:#ffffff;fill-opacity:0.63978493;stroke:none;"
       d="m 3.4935,490.81698 c 314.41539,209.1974 331.678,697.99422 0,940.81452 -236.82317,5.2672 -236.82317,-940.81452 0,-940.81452 z"/>
  </g>
  <g>
    <path
       d="m 800.19561,571.34118 c -17.08207,-14.06759 -33.15932,-20.09656 -52.25104,-20.09656 -40.1931,0 -75.36207,32.15448 -75.36207,73.35242 0,18.0869 8.03862,37.17862 22.10621,54.26069 65.31379,77.37173 97.46828,180.86897 97.46828,283.3614 0,99.47797 -25.1207,219.05247 -102.49243,297.42907 -12.05792,17.0821 -17.08206,37.1786 -17.08206,52.2511 0,43.2075 33.15931,72.3476 74.35724,72.3476 20.09655,0 40.19311,-6.029 58.28001,-25.1208 100.48276,-100.4827 138.66621,-262.26 138.66621,-401.93111 0,-137.66139 -41.19793,-275.32278 -143.69035,-385.85381"
       style="fill:#0672ba;stroke:none;" />
    <path
       d="m 327.25673,1158.1605 c 0,53.256 27.13035,78.3767 78.37656,78.3767 52.25103,0 78.37655,-25.1207 78.37655,-78.3767 l 0,-169.81585 c 0,-52.25104 -28.13517,-77.37173 -79.38138,-77.37173 -50.24138,0 -77.37173,25.12069 -77.37173,77.37173 l 0,169.81585 M 313.18914,761.25359 c 0,50.24139 40.19311,89.42967 89.42967,89.42967 51.24621,0 90.43448,-39.18828 90.43448,-89.42967 0,-50.24138 -39.18827,-89.42965 -90.43448,-89.42965 -49.23656,0 -89.42967,39.18827 -89.42967,89.42965"
       style="fill:#0672ba;stroke:none;" />
  </g>
</svg>
