
<svg xmlns="http://www.w3.org/2000/svg" viewBox="0 354 3890 1180">
  
  <g transform="matrix(1.2936407,0,0,1.2936407,-148.06314,201.25019)">
    
    <g style="fill:none;stroke:#0672ba;stroke-width:10;">
      <path d="m 738.0,600.6 c 0.0,20.7 -16.8,37.5 -37.5,37.5 -20.7,0.0 -37.5,-16.8 -37.5,-37.5 0.0,-20.7 16.8,-37.5 37.5,-37.5 20.7,0.0 37.5,16.8 37.5,37.5 z" />
      <path d="m 838.0,600.6 c 0.0,20.7 -16.8,37.5 -37.5,37.5 -20.7,0.0 -37.5,-16.8 -37.5,-37.5 0.0,-20.7 16.8,-37.5 37.5,-37.5 20.7,0.0 37.5,16.8 37.5,37.5 z" />
      <path d="m 838.0,700.6 c 0.0,20.7 -16.8,37.5 -37.5,37.5 -20.7,0.0 -37.5,-16.8 -37.5,-37.5 0.0,-20.7 16.8,-37.5 37.5,-37.5 20.7,0.0 37.5,16.8 37.5,37.5 z" />
      <path d="m 738.0,700.6 c 0.0,20.7 -16.8,37.5 -37.5,37.5 -20.7,0.0 -37.5,-16.8 -37.5,-37.5 0.0,-20.7 16.8,-37.5 37.5,-37.5 20.7,0.0 37.5,16.8 37.5,37.5 z" />
      <path d="m 738.0,800.6 c 0.0,20.7 -16.8,37.5 -37.5,37.5 -20.7,0.0 -37.5,-16.8 -37.5,-37.5 0.0,-20.7 16.8,-37.5 37.5,-37.5 20.7,0.0 37.5,16.8 37.5,37.5 z" />
      <path d="m 638.0,800.6 c 0.0,20.7 -16.8,37.5 -37.5,37.5 -20.7,0.0 -37.5,-16.8 -37.5,-37.5 0.0,-20.7 16.8,-37.5 37.5,-37.5 20.7,0.0 37.5,16.8 37.5,37.5 z" />
      <path d="m 538.0,800.6 c 0.0,20.7 -16.8,37.5 -37.5,37.5 -20.7,0.0 -37.5,-16.8 -37.5,-37.5 0.0,-20.7 16.8,-37.5 37.5,-37.5 20.7,0.0 37.5,16.8 37.5,37.5 z" />
      <path d="m 438.0,800.6 c 0.0,20.7 -16.8,37.5 -37.5,37.5 -20.7,0.0 -37.5,-16.8 -37.5,-37.5 0.0,-20.7 16.8,-37.5 37.5,-37.5 20.7,0.0 37.5,16.8 37.5,37.5 z" />
      <path d="m 438.0,600.6 c 0.0,20.7 -16.8,37.5 -37.5,37.5 -20.7,0.0 -37.5,-16.8 -37.5,-37.5 0.0,-20.7 16.8,-37.5 37.5,-37.5 20.7,0.0 37.5,16.8 37.5,37.5 z" />
      <path d="m 538.0,600.6 c 0.0,20.7 -16.8,37.5 -37.5,37.5 -20.7,0.0 -37.5,-16.8 -37.5,-37.5 0.0,-20.7 16.8,-37.5 37.5,-37.5 20.7,0.0 37.5,16.8 37.5,37.5 z" />
      <path d="m 638.0,600.6 c 0.0,20.7 -16.8,37.5 -37.5,37.5 -20.7,0.0 -37.5,-16.8 -37.5,-37.5 0.0,-20.7 16.8,-37.5 37.5,-37.5 20.7,0.0 37.5,16.8 37.5,37.5 z" />
      <path d="m 838.0,800.6 c 0.0,20.7 -16.8,37.5 -37.5,37.5 -20.7,0.0 -37.5,-16.8 -37.5,-37.5 0.0,-20.7 16.8,-37.5 37.5,-37.5 20.7,0.0 37.5,16.8 37.5,37.5 z" />
      <path d="m 738.0,900.6 c 0.0,20.7 -16.8,37.5 -37.5,37.5 -20.7,0.0 -37.5,-16.8 -37.5,-37.5 0.0,-20.7 16.8,-37.5 37.5,-37.5 20.7,0.0 37.5,16.8 37.5,37.5 z" />
      <path d="m 638.0,900.6 c 0.0,20.7 -16.8,37.5 -37.5,37.5 -20.7,0.0 -37.5,-16.8 -37.5,-37.5 0.0,-20.7 16.8,-37.5 37.5,-37.5 20.7,0.0 37.5,16.8 37.5,37.5 z" />
      <path d="m 538.0,900.6 c 0.0,20.7 -16.8,37.5 -37.5,37.5 -20.7,0.0 -37.5,-16.8 -37.5,-37.5 0.0,-20.7 16.8,-37.5 37.5,-37.5 20.7,0.0 37.5,16.8 37.5,37.5 z" />
      <path d="m 438.0,900.6 c 0.0,20.7 -16.8,37.5 -37.5,37.5 -20.7,0.0 -37.5,-16.8 -37.5,-37.5 0.0,-20.7 16.8,-37.5 37.5,-37.5 20.7,0.0 37.5,16.8 37.5,37.5 z" />
      <path d="m 338.0,900.6 c 0.0,20.7 -16.8,37.5 -37.5,37.5 -20.7,0.0 -37.5,-16.8 -37.5,-37.5 0.0,-20.7 16.8,-37.5 37.5,-37.5 20.7,0.0 37.5,16.8 37.5,37.5 z" />
      <path d="m 238.0,900.6 c 0.0,20.7 -16.8,37.5 -37.5,37.5 -20.7,0.0 -37.5,-16.8 -37.5,-37.5 0.0,-20.7 16.8,-37.5 37.5,-37.5 20.7,0.0 37.5,16.8 37.5,37.5 z" />
      <path d="m 338.0,800.6 c 0.0,20.7 -16.8,37.5 -37.5,37.5 -20.7,0.0 -37.5,-16.8 -37.5,-37.5 0.0,-20.7 16.8,-37.5 37.5,-37.5 20.7,0.0 37.5,16.8 37.5,37.5 z" />
    </g>
    
    <g style="fill:#0672ba;stroke:#0672ba;stroke-width:10;">
      <path d="m 538.0,200.6 c 0.0,20.7 -16.8,37.5 -37.5,37.5 -20.7,0.0 -37.5,-16.8 -37.5,-37.5 0.0,-20.7 16.8,-37.5 37.5,-37.5 20.7,0.0 37.5,16.8 37.5,37.5 z" />
      <path d="m 738.0,200.6 c 0.0,20.7 -16.8,37.5 -37.5,37.5 -20.7,0.0 -37.5,-16.8 -37.5,-37.5 0.0,-20.7 16.8,-37.5 37.5,-37.5 20.7,0.0 37.5,16.8 37.5,37.5 z" />
      <path d="m 838.0,200.6 c 0.0,20.7 -16.8,37.5 -37.5,37.5 -20.7,0.0 -37.5,-16.8 -37.5,-37.5 0.0,-20.7 16.8,-37.5 37.5,-37.5 20.7,0.0 37.5,16.8 37.5,37.5 z" />
      <path d="m 938.0,200.6 c 0.0,20.7 -16.8,37.5 -37.5,37.5 -20.7,0.0 -37.5,-16.8 -37.5,-37.5 0.0,-20.7 16.8,-37.5 37.5,-37.5 20.7,0.0 37.5,16.8 37.5,37.5 z" />
      <path d="m 838.0,300.6 c 0.0,20.7 -16.8,37.5 -37.5,37.5 -20.7,0.0 -37.5,-16.8 -37.5,-37.5 0.0,-20.7 16.8,-37.5 37.5,-37.5 20.7,0.0 37.5,16.8 37.5,37.5 z" />
      <path d="m 738.0,300.6 c 0.0,20.7 -16.8,37.5 -37.5,37.5 -20.7,0.0 -37.5,-16.8 -37.5,-37.5 0.0,-20.7 16.8,-37.5 37.5,-37.5 20.7,0.0 37.5,16.8 37.5,37.5 z" />
      <path d="m 638.0,300.6 c 0.0,20.7 -16.8,37.5 -37.5,37.5 -20.7,0.0 -37.5,-16.8 -37.5,-37.5 0.0,-20.7 16.8,-37.5 37.5,-37.5 20.7,0.0 37.5,16.8 37.5,37.5 z" />
      <path d="m 538.0,300.6 c 0.0,20.7 -16.8,37.5 -37.5,37.5 -20.7,0.0 -37.5,-16.8 -37.5,-37.5 0.0,-20.7 16.8,-37.5 37.5,-37.5 20.7,0.0 37.5,16.8 37.5,37.5 z" />
      <path d="m 438.0,300.6 c 0.0,20.7 -16.8,37.5 -37.5,37.5 -20.7,0.0 -37.5,-16.8 -37.5,-37.5 0.0,-20.7 16.8,-37.5 37.5,-37.5 20.7,0.0 37.5,16.8 37.5,37.5 z" />
      <path d="m 438.0,400.6 c 0.0,20.7 -16.8,37.5 -37.5,37.5 -20.7,0.0 -37.5,-16.8 -37.5,-37.5 0.0,-20.7 16.8,-37.5 37.5,-37.5 20.7,0.0 37.5,16.8 37.5,37.5 z" />
      <path d="m 538.0,500.6 c 0.0,20.7 -16.8,37.5 -37.5,37.5 -20.7,0.0 -37.5,-16.8 -37.5,-37.5 0.0,-20.7 16.8,-37.5 37.5,-37.5 20.7,0.0 37.5,16.8 37.5,37.5 z" />
      <path d="m 638.0,500.6 c 0.0,20.7 -16.8,37.5 -37.5,37.5 -20.7,0.0 -37.5,-16.8 -37.5,-37.5 0.0,-20.7 16.8,-37.5 37.5,-37.5 20.7,0.0 37.5,16.8 37.5,37.5 z" />
      <path d="m 738.0,500.6 c 0.0,20.7 -16.8,37.5 -37.5,37.5 -20.7,0.0 -37.5,-16.8 -37.5,-37.5 0.0,-20.7 16.8,-37.5 37.5,-37.5 20.7,0.0 37.5,16.8 37.5,37.5 z" />
      <path d="m 338.0,300.6 c 0.0,20.7 -16.8,37.5 -37.5,37.5 -20.7,0.0 -37.5,-16.8 -37.5,-37.5 0.0,-20.7 16.8,-37.5 37.5,-37.5 20.7,0.0 37.5,16.8 37.5,37.5 z" />
      <path d="m 438.0,200.6 c 0.0,20.7 -16.8,37.5 -37.5,37.5 -20.7,0.0 -37.5,-16.8 -37.5,-37.5 0.0,-20.7 16.8,-37.5 37.5,-37.5 20.7,0.0 37.5,16.8 37.5,37.5 z" />
      <path d="m 338.0,400.6 c 0.0,20.7 -16.8,37.5 -37.5,37.5 -20.7,0.0 -37.5,-16.8 -37.5,-37.5 0.0,-20.7 16.8,-37.5 37.5,-37.5 20.7,0.0 37.5,16.8 37.5,37.5 z" />
      <path d="m 438.0,500.6 c 0.0,20.7 -16.8,37.5 -37.5,37.5 -20.7,0.0 -37.5,-16.8 -37.5,-37.5 0.0,-20.7 16.8,-37.5 37.5,-37.5 20.7,0.0 37.5,16.8 37.5,37.5 z" />
      <path d="m 338.0,500.6 c 0.0,20.7 -16.8,37.5 -37.5,37.5 -20.7,0.0 -37.5,-16.8 -37.5,-37.5 0.0,-20.7 16.8,-37.5 37.5,-37.5 20.7,0.0 37.5,16.8 37.5,37.5 z" />
      <path d="m 638.0,200.6 c 0.0,20.7 -16.8,37.5 -37.5,37.5 -20.7,0.0 -37.5,-16.8 -37.5,-37.5 0.0,-20.7 16.8,-37.5 37.5,-37.5 20.7,0.0 37.5,16.8 37.5,37.5 z" />
    </g>
    
    <g style="fill:none;stroke:#646464;stroke-width:5;">
      <path d="m 250,900 0,-100" />
      <path d="m 650,900 0,-700" />
      <path d="m 350,900 0,-200" />
      <path d="m 450,900 0,-700" />
      <path d="m 550,900 0,-700" />
      <path d="m 750,400 0,-200" />
      <path d="m 850,300 0,-100" />
      <path d="m 300,550 500,0" />
      <path d="m 300,450 400,0" />
      <path d="m 300,350 500,0" />
      <path d="m 300,250 600,0" />
      <path d="m 400,650 400,0" />
      <path d="m 300,750 500,0" />
      <path d="m 200,850 600,0" />
      <path d="m 350,600 0,-400" />
      <path d="m 750,900 0,-400" />
    </g>
    
  </g>
  
  <g transform="matrix(3.6756714,0,0,3.6756714,72.706106,-3623.0818)" style="stroke:none">
    <path style="fill:#646464" d="m 267.3,1345.9 c 0.0,15.3 7.5,23.1 22.5,23.1 15.9,0.0 23.4,-7.8 23.4,-23.1 l 0.0,-83.7 c 0.0,-17.7 11.7,-26.7 23.7,-26.7 10.8,0.0 22.2,8.7 22.2,26.7 l 0.0,83.7 c 0.0,15.3 8.1,23.1 23.1,23.1 15.6,0.0 23.4,-7.8 23.4,-23.1 l 0.0,-88.8 c 1.8,-14.4 12.6,-21.6 23.4,-21.6 10.8,0.0 22.2,8.7 22.2,26.7 l 0.0,83.7 c 0.0,15.3 8.1,23.1 23.1,23.1 15.6,0.0 23.4,-7.8 23.4,-23.1 l 0.0,-92.1 c 0.0,-41.7 -24.9,-58.8 -50.4,-58.8 -18.9,0.0 -38.1,9.3 -47.7,24.9 -8.1,-18.3 -23.1,-25.5 -38.7,-25.5 -18.0,0.0 -37.2,9.6 -47.7,21.6 0.0,-9.3 -7.5,-20.7 -23.4,-20.7 -15.0,0.0 -22.5,11.4 -22.5,24.0 l 0.0,126.6" />
    <path style="fill:#0672ba" d="m 525.0,1321.6 c 0.0,15.9 8.1,23.4 23.4,23.4 15.6,0.0 23.4,-7.5 23.4,-23.4 l 0.0,-50.7 c 0.0,-15.6 -8.4,-23.1 -23.7,-23.1 -15.0,0.0 -23.1,7.5 -23.1,23.1 l 0.0,50.7 m -4.2,-118.5 c 0.0,15.0 12.0,26.7 26.7,26.7 15.3,0.0 27.0,-11.7 27.0,-26.7 0.0,-15.0 -11.7,-26.7 -27.0,-26.7 -14.7,0.0 -26.7,11.7 -26.7,26.7" />
    <path style="fill:#646464" d="m 593.3,1345.6 c 0.0,15.9 7.5,23.4 23.4,23.4 15.6,0.0 23.1,-7.5 23.1,-23.4 l 0.0,-195.9 c 0.0,-15.3 -8.1,-23.7 -23.4,-23.7 -15.3,0.0 -23.1,8.4 -23.1,23.7 l 0.0,195.9" />
    <path style="fill:#646464" d="m 742.3,1191.7 c -50.1,0.0 -77.7,43.5 -77.7,89.1 0.0,49.5 29.4,91.5 82.2,91.5 27.6,0.0 49.8,-10.2 64.8,-28.8 3.9,-4.2 5.1,-8.4 5.1,-13.8 0.0,-13.8 -7.5,-19.8 -17.1,-19.8 -15.9,0.0 -25.5,18.6 -48.6,18.6 -12.9,0.0 -39.6,-9.3 -39.6,-36.3 l 68.7,0.0 c 23.1,0.0 37.2,0.0 37.2,-23.1 0.0,-46.5 -26.7,-77.4 -75.0,-77.4 m -28.5,69.3 c 0.0,-18.6 15.3,-28.5 29.1,-28.5 13.2,0.0 26.4,9.3 26.4,28.5 l -55.5,0.0" />
    <path style="fill:#0672ba" d="m 842.0,1321.6 c 0.0,15.9 8.1,23.4 23.4,23.4 15.6,0.0 23.4,-7.5 23.4,-23.4 l 0.0,-50.7 c 0.0,-15.6 -8.4,-23.1 -23.7,-23.1 -15.0,0.0 -23.1,7.5 -23.1,23.1 l 0.0,50.7 m -4.2,-118.5 c 0.0,15.0 12.0,26.7 26.7,26.7 15.3,0.0 27.0,-11.7 27.0,-26.7 0.0,-15.0 -11.7,-26.7 -27.0,-26.7 -14.7,0.0 -26.7,11.7 -26.7,26.7" />
    <path style="fill:#0672ba" d="m 983.2,1146.4 c -5.1,-4.2 -9.9,-6.0 -15.6,-6.0 -12.0,0.0 -22.5,9.6 -22.5,21.9 0.0,5.4 2.4,11.1 6.6,16.2 19.5,23.1 29.1,54.0 29.1,84.6 0.0,29.7 -7.5,65.4 -30.6,88.8 -3.6,5.1 -5.1,11.1 -5.1,15.6 0.0,12.9 9.9,21.6 22.2,21.6 6.0,0.0 12.0,-1.8 17.4,-7.5 30.0,-30.0 41.4,-78.3 41.4,-120.0 0.0,-41.1 -12.3,-82.2 -42.9,-115.2" />
  </g>
  

</svg>