<?xml version="1.0" encoding="UTF-8" standalone="no"?>
<svg xmlns:svg="http://www.w3.org/2000/svg" xmlns="http://www.w3.org/2000/svg" viewBox="0 0 151 68">
  <defs>
    <pattern id="patternY" width="0.168" height="0.203">
      <rect style="fill:#ffca29;" width="2.3" height="2.3" x="0" y="0" />
    </pattern>
    <pattern id="patternG" width="0.168" height="0.203">
      <rect style="fill:#75dc09;" width="2.3" height="2.3" x="0" y="0" />
    </pattern>
    <pattern id="patternB" width="0.168" height="0.203">
      <rect style="fill:#15adf3;" width="2.3" height="2.3" x="0" y="0" />
    </pattern>
    <pattern id="patternR" width="0.168" height="0.203">
      <rect style="fill:#ff5050;" width="2.3" height="2.3" x="0" y="0" />
    </pattern>
    <pattern id="patternP" width="0.168" height="0.203">
      <rect style="fill:#d377ea;" width="2.3" height="2.3" x="0" y="0" />
    </pattern>
    <marker id="arrow" orient="auto" markerWidth="4" markerHeight="8" refX="1" refY="2">
        <path style="fill-opacity:0.7" d="M 0 0 C 1 2, 1 2, 0 4 L 4 2 Z"/>
    </marker>
  </defs>
  
  <g style="fill:url(#patternY)">
    <rect width="18" height="15" x="0" y="16"/>
    <rect width="18" height="15" x="0" y="32"/>
    <rect width="18" height="15" x="0" y="48"/>
    <rect width="18" height="15" x="19" y="32"/>
    <rect width="18" height="15" x="19" y="48"/>
  </g>
  <g style="fill:url(#patternG)">
    <rect width="18" height="15" x="0" y="0"/>
    <rect width="18" height="15" x="19" y="0"/>
    <rect width="18" height="15" x="19" y="16"/>
    <rect width="18" height="15" x="38" y="0"/>
    <rect width="18" height="15" x="38" y="16"/>
    <rect width="18" height="15" x="38" y="32"/>
    <rect width="18" height="15" x="38" y="48"/>
    <rect width="18" height="15" x="57" y="0"/>
    <rect width="18" height="15" x="57" y="16"/>
    <rect width="18" height="15" x="57" y="32"/>
  </g>
  <g style="fill:url(#patternB)">
    <rect width="18" height="15" x="57" y="48"/>
    <rect width="18" height="15" x="76" y="0"/>
    <rect width="18" height="15" x="76" y="16"/>
    <rect width="18" height="15" x="76" y="32"/>
    <rect width="18" height="15" x="76" y="48"/>
    <rect width="18" height="15" x="95" y="32"/>
    <rect width="18" height="15" x="95" y="48"/>
  </g>
  <g style="fill:url(#patternR)">
    <rect width="18" height="15" x="95" y="0"/>
    <rect width="18" height="15" x="95" y="16"/>
    <rect width="18" height="15" x="114" y="0"/>
    <rect width="18" height="15" x="114" y="16"/>
    <rect width="18" height="15" x="133" y="0"/>
    <rect width="18" height="15" x="133" y="16"/>
  </g>
  <g style="fill:url(#patternP)">
    <rect width="18" height="15" x="114" y="32"/>
    <rect width="18" height="15" x="114" y="48"/>
    <rect width="18" height="15" x="133" y="32"/>
    <rect width="18" height="15" x="133" y="48"/>
  </g>
  <path style="fill:none; stroke:#000; stroke-width:2; stroke-opacity:0.7; stroke-linejoin: round;" marker-end="url(#arrow)"
    d="M 8.5 55 l 19 0 l 0 -16 l -19 0 l 0 -16 l 0 -16 l 19 0 l 0 16 l 19 0 l 0 -16 l 19 0 l 0 16 l 0 16 l -19 0 l 0 16 l 19 0 l 19 0 l 19 0 l 0 -16 l -19 0 l 0 -16 l 0 -16 l 19 0 l 0 16 l 19 0 l 0 -16 l 19 0 l 0 16 l 0 16 l -19 0 l 0 16 l 14 0 " /> 
</svg>
