
<svg xmlns="http://www.w3.org/2000/svg" viewBox="0 0 35 35">
  <g style="fill:#0672ba;stroke:none;">
    <path d="m 3.54,31.82 c 0.0,-15.06 21.26,-15.06 21.26,0.0 l -1.77,0.0 c 0.0,-12.4 -17.72,-12.4 -17.72,0.0 z" />
    <path d="m 31.0,27.39 1.77,0.0 c 0.0,-3.54 -3.48,-7.21 -7.02,-7.21 -0.81,0.38 -0.84,1.85 -0.06,1.9 2.66,0.0 5.31,2.66 5.31,5.31 z" />
    <path d="m 25.76,20.18 c 3.23,-2.41 2.61,-8.71 -2.73,-9.69 -0.22,-0.84 -0.39,-1.13 -0.82,-1.68 7.99,0.63 9.06,10.05 3.49,13.24 z" />
  </g>
  <circle cx="14" cy="14" r="7.1" style="fill:none;stroke:#0672ba;stroke-width:1.8;" />
</svg>
