
<svg xmlns="http://www.w3.org/2000/svg" viewBox="0 0 364 444">
  <g style="fill:#0672ba;fill-opacity:1;stroke:none;" transform="translate(-189.49223,-102.75591)">
    <path d="M 372.04724,113.38583 212.59843,272.83465 c 0,0 -28.07163,23.94545 0,53.1496 28.07163,29.20415 53.1496,0 53.1496,0 L 372.04724,219.68504 478.34646,325.98425 c 0,0 26.46549,27.25038 53.1496,0 26.68411,-27.25038 0,-53.1496 0,-53.1496 z" />
    <path d="M 372.04724,310.80316 212.59843,470.25198 c 0,0 -28.07163,23.94545 0,53.1496 28.07163,29.20415 53.1496,0 53.1496,0 L 372.04724,417.10237 478.34646,523.40158 c 0,0 26.46549,27.25038 53.1496,0 26.68411,-27.25038 0,-53.1496 0,-53.1496 z" />
  </g>
</svg>
