<?xml version="1.0" encoding="UTF-8"?>
<svg xmlns="http://www.w3.org/2000/svg" viewBox="-165 -20 330 350">
    <path style="fill:#1b1817;stroke:none" d="m 0.0,-0.0 c -89.94,-0.0 -162.88,72.93 -162.88,162.9 0.0,71.96 46.67,133.02 111.4,154.57 8.15,1.49 11.12,-3.54 11.12,-7.86 0.0,-3.87 -0.14,-14.11 -0.22,-27.7 -45.31,9.84 -54.87,-21.84 -54.87,-21.84 -7.41,-18.82 -18.09,-23.83 -18.09,-23.83 -14.79,-10.1 1.12,-9.9 1.12,-9.9 16.35,1.15 24.95,16.79 24.95,16.79 14.53,24.89 38.13,17.7 47.41,13.53 1.48,-10.52 5.69,-17.7 10.34,-21.77 -36.17,-4.12 -74.2,-18.09 -74.2,-80.51 0.0,-17.79 6.35,-32.32 16.77,-43.71 -1.68,-4.12 -7.27,-20.68 1.6,-43.11 0.0,-0.0 13.67,-4.38 44.79,16.69 12.99,-3.61 26.93,-5.41 40.78,-5.48 13.84,0.07 27.77,1.87 40.78,5.48 31.1,-21.07 44.75,-16.69 44.75,-16.69 8.89,22.43 3.3,38.99 1.63,43.11 10.44,11.39 16.74,25.92 16.74,43.71 0.0,62.58 -38.09,76.35 -74.37,80.38 5.84,5.03 11.05,14.97 11.05,30.17 0.0,21.77 -0.2,39.34 -0.2,44.68 0.0,4.36 2.94,9.43 11.2,7.84 64.68,-21.59 111.31,-82.6 111.31,-154.55 0.0,-89.97 -72.94,-162.9 -162.91,-162.9" />
</svg>