<svg viewBox="0 -480 500 500" xmlns="http://www.w3.org/2000/svg" >
    <g stroke="none" stroke-width="1" fill="none" transform="scale(1,-1)">

        <g  transform="translate(0.532000, 0.774933)" fill="#FC6D26">
            <path d="M492,194.67 L464.44,279.48 L409.82,447.58 C407.01,456.23 394.78,456.23 391.97,447.58 L337.35,279.48 L155.98,279.48 L101.36,447.58 C98.55,456.23 86.32,456.23 83.51,447.58 L28.89,279.48 L1.33,194.67 C-1.18,186.93 1.57,178.46 8.15,173.67 L246.67,0.39 L485.18,173.67 C491.76,178.46 494.51,186.93 492,194.67" ></path>
        </g>
        <g  transform="translate(156.197863, 1.160267)" fill="#E24329">
            <path d="M91,0 L91,0 L181.68,279.1 L0.32,279.1 L91,0 L91,0 Z" ></path>
        </g>
        <g  transform="translate(28.531199, 1.160800)" fill="#FC6D26">
            <path d="M218.67,0 L127.98,279.09 L0.89,279.09 L218.67,0 L218.67,0 Z" ></path>
        </g>
        <g  transform="translate(0.088533, 0.255867)" fill="#FCA326">
            <path d="M29.33,280 L29.33,280 L1.77,195.19 C-0.74,187.45 2.01,178.97 8.6,174.19 L247.11,0.91 L29.33,280 L29.33,280 Z" ></path>
        </g>
        <g  transform="translate(29.421866, 280.255593)" fill="#E24329">
            <path d="M0,0 L127.09,0 L72.47,168.1 C69.66,176.75 57.43,176.75 54.62,168.1 L0,0 L0,0 Z" ></path>
        </g>
        <g  transform="translate(247.197860, 1.160800)" fill="#FC6D26">
            <path d="M0,0 L90.68,279.09 L217.78,279.09 L0,0 L0,0 Z" ></path>
        </g>
        <g  transform="translate(246.307061, 0.255867)" fill="#FCA326">
            <path d="M218.67,280 L218.67,280 L246.23,195.19 C248.74,187.45 245.99,178.97 239.4,174.19 L0.89,0.91 L218.67,280 L218.67,280 Z" ></path>
        </g>
        <g  transform="translate(336.973725, 280.255593)" fill="#E24329">
            <path d="M128,0 L0.91,0 L55.53,168.1 C58.34,176.75 70.57,176.75 73.38,168.1 L128,0 L128,0 Z" ></path>
        </g>

    </g>
</svg>