<svg xmlns="http://www.w3.org/2000/svg" viewBox="-4 -4 34 34">
    <path style="fill:#0672ba" d="M 7 0 C 4.8 0 3 1.8 3 4 L 3 22 C 3 24.2 4.8 26 7 26 L 19 26 C 21.2 26 23 24.2 23 22 L 23 8 C 23 6.9 22 5.9 20.3 4.2 C 20 4 19.8 3.7 19.5 3.5 C 19.3 3.2 19 3 18.8 2.8 C 17.1 1 16.1 0 15 0 L 7 0 z M 7 2 L 14.3 2 C 15 2.2 15 3.1 15 3.9 L 15 7 C 15 7.6 15.4 8 16 8 L 19 8 C 20 8 21 8 21 9 L 21 22 C 21 23.1 20.1 24 19 24 L 7 24 C 5.9 24 5 23.1 5 22 L 5 4 C 5 2.9 5.9 2 7 2 z M 7.8 10 A 1 1 0 0 0 8 12 L 18 12 A 1 1 0 1 0 18 10 L 8 10 A 1 1 0 0 0 7.9 10 A 1 1 0 0 0 7.8 10 z M 7.8 14 A 1 1 0 0 0 8 16 L 16 16 A 1 1 0 1 0 16 14 L 8 14 A 1 1 0 0 0 7.9 14 A 1 1 0 0 0 7.8 14 z M 7.8 18 A 1 1 0 0 0 8 20 L 18 20 A 1 1 0 1 0 18 18 L 8 18 A 1 1 0 0 0 7.9 18 A 1 1 0 0 0 7.8 18 z"/>
</svg>